# xmcd
#
# Track frame offsets:
#	150
#	13092
#	32259
#	49928
#	82909
#	95416
#	124691
#	137000
#	150425
#	165127
#	199570
#	214395
#	240615
#
# Disc length: 3473 seconds
#
# Revision: 0
# Processed by: cddbd v1.4PL0 Copyright (c) Steve Scherf et al.
# Submitted via: dBpowerAMP V4.0
#
DISCID=970d8f0d
DTITLE=Lea Gilmore - I don't know where you are
DYEAR=2003
DGENRE=Blues
TTITLE0=Evil Gal Blues
TTITLE1=Fever
TTITLE2=See See Rider
TTITLE3=I Don't Know Where You Are
TTITLE4=Trouble in Mind
TTITLE5=Rock ME Baby
TTITLE6=Drink Muddy Water
TTITLE7=Hallelujia I Just Love Him So
TTITLE8=Nobody's Fault But Mine
TTITLE9=Since I Fell For You
TTITLE10=Woman Be Wise
TTITLE11=You Are My Sunshine
TTITLE12=Drown In My Own Tears
EXTD=
EXTT0=
EXTT1=
EXTT2=
EXTT3=
EXTT4=
EXTT5=
EXTT6=
EXTT7=
EXTT8=
EXTT9=
EXTT10=
EXTT11=
EXTT12=
PLAYORDER=
